<svg width="66" height="73" viewBox="0 0 66 73" fill="none" xmlns="http://www.w3.org/2000/svg">
<path d="M33 68.5208C49.3269 68.5208 62.5625 54.0247 62.5625 36.1429C62.5625 18.261 49.3269 3.76488 33 3.76488C16.6731 3.76488 3.4375 18.261 3.4375 36.1429C3.4375 54.0247 16.6731 68.5208 33 68.5208Z" stroke="#251F1F" stroke-width="0.416667" stroke-linecap="round" stroke-linejoin="round"/>
<path d="M41.9375 36.1429L53.9687 58.9656M12.0313 13.3201L24.0625 36.1429M40.5625 4.84314L28.5312 27.6659M37.4687 44.6199L25.4375 67.4426M28.5312 44.6199H4.46325M37.4687 27.6659H61.5368M37.4687 27.6659H28.5312L24.0625 36.1429L28.5312 44.6199H37.4687L41.9375 36.1429L37.4687 27.6659V27.6659Z" stroke="#251F1F" stroke-width="0.416667" stroke-linecap="round" stroke-linejoin="round"/>
</svg>
